<svg xmlns="http://www.w3.org/2000/svg" viewBox="0 0 179.589 179.583">
    <path d="M124.974 119.324h12.889l-.028-45.352c.014-.515.096-6.846-2.16-13.745-2.213-6.822-6.696-14.188-15.744-17.044l1.34-4.373-13.75 7.235 7.244 13.748 1.353-4.353c7.558 2.443 8.679 13.926 8.856 17.388v20.955c0 9.766-7.653 16.026-15.02 16.026-7.613 0-13.585-5.22-13.64-15.768v-8.896c0-.096-.014-.182-.014-.277-.069-12.21-5.084-20.44-13.025-24.002-2.938-1.319-6.246-2.017-9.881-2.017-8.392 0-15.035 4.383-19.162 10.268.26-1.752.383-3.507.383-4.883v-4.007H41.713s.027 45.899.04 45.385c-.013.514-.094 6.825 2.133 13.712 2.214 6.831 6.697 14.219 15.772 17.075l-1.353 4.375 13.75-7.236-7.23-13.748-1.367 4.353c-7.558-2.442-8.68-13.925-8.843-17.387V85.145c.246-9.016 6.765-15.402 15.02-15.402 7.6 0 13.586 5.344 13.64 15.768v8.898c0 .095.014.183.014.279.069 12.296 5.084 20.486 13.025 24.019 2.925 1.306 6.246 1.995 9.868 1.995 8.269 0 14.91-4.257 19.039-10.141-.123 1.752-.247 3.506-.247 4.882v3.881m54.615-29.532c0 49.59-40.195 89.791-89.794 89.791-49.6 0-89.795-40.2-89.795-89.791C0 40.202 40.196 0 89.795 0c49.599 0 89.794 40.201 89.794 89.792" fill="#fff"/>
</svg>
